<svg xmlns="http://www.w3.org/2000/svg" xmlns:xlink="http://www.w3.org/1999/xlink" width="500" zoomAndPan="magnify" viewBox="0 0 375 374.999991" height="500" preserveAspectRatio="xMidYMid meet" version="1.0"><defs><g/><clipPath id="cee1a16ac6"><path d="M 85 121.09375 L 119.558594 121.09375 L 119.558594 221.59375 L 85 221.59375 Z M 85 121.09375 " clip-rule="nonzero"/></clipPath><clipPath id="07d89944a9"><path d="M 24.308594 121.09375 L 107 121.09375 L 107 221.59375 L 24.308594 221.59375 Z M 24.308594 121.09375 " clip-rule="nonzero"/></clipPath><clipPath id="9f12a66b1e"><rect x="0" width="149" y="0" height="57"/></clipPath></defs><g clip-path="url(#cee1a16ac6)"><path fill="#7c4d93" d="M 96.355469 121.089844 L 85.035156 121.089844 C 98.148438 133.855469 106.289062 151.699219 106.289062 171.445312 C 106.289062 191.1875 98.148438 209.03125 85.035156 221.796875 L 96.355469 221.796875 C 108.949219 221.796875 119.160156 211.585938 119.160156 198.992188 L 119.160156 143.894531 C 119.160156 131.300781 108.949219 121.089844 96.355469 121.089844 " fill-opacity="1" fill-rule="nonzero"/></g><g clip-path="url(#07d89944a9)"><path fill="#252669" d="M 106.289062 171.445312 C 106.289062 151.699219 98.148438 133.855469 85.035156 121.089844 L 41.253906 121.089844 C 34.5625 121.089844 28.542969 123.972656 24.371094 128.566406 L 81.632812 128.566406 C 85.398438 128.566406 88.449219 131.617188 88.449219 135.378906 L 88.449219 140.058594 C 88.449219 143.824219 85.398438 146.875 81.632812 146.875 L 50.804688 146.875 C 47.039062 146.875 43.988281 149.925781 43.988281 153.691406 C 43.988281 157.453125 47.039062 160.503906 50.804688 160.503906 L 78.414062 160.503906 C 82.179688 160.503906 85.230469 163.554688 85.230469 167.320312 L 85.230469 171.179688 C 85.230469 174.945312 82.179688 177.996094 78.414062 177.996094 L 50.804688 177.996094 C 47.039062 177.996094 43.988281 181.046875 43.988281 184.8125 L 43.988281 188.085938 C 43.988281 191.851562 47.039062 194.902344 50.804688 194.902344 L 82.917969 194.902344 C 86.683594 194.902344 89.734375 197.953125 89.734375 201.714844 L 89.734375 207.507812 C 89.734375 211.273438 86.683594 214.324219 82.917969 214.324219 L 24.371094 214.324219 C 28.542969 218.914062 34.5625 221.796875 41.253906 221.796875 L 85.035156 221.796875 C 98.148438 209.03125 106.289062 191.1875 106.289062 171.445312 " fill-opacity="1" fill-rule="nonzero"/></g><g transform="matrix(1, 0, 0, 1, 203, 202)"><g clip-path="url(#9f12a66b1e)"><g fill="#ffffff" fill-opacity="1"><g transform="translate(0.121451, 44.558048)"><g><path d="M 6.046875 -31.359375 C 6.640625 -31.359375 7.164062 -31.140625 7.625 -30.703125 C 8.09375 -30.273438 8.328125 -29.734375 8.328125 -29.078125 L 8.328125 -2.28125 C 8.296875 -1.625 8.050781 -1.078125 7.59375 -0.640625 C 7.132812 -0.210938 6.585938 0 5.953125 0 C 5.265625 0 4.703125 -0.210938 4.265625 -0.640625 C 3.835938 -1.078125 3.625 -1.625 3.625 -2.28125 L 3.625 -29.078125 C 3.625 -29.734375 3.847656 -30.273438 4.296875 -30.703125 C 4.742188 -31.140625 5.328125 -31.359375 6.046875 -31.359375 Z M 26.25 -31.359375 C 26.96875 -31.359375 27.535156 -31.140625 27.953125 -30.703125 C 28.367188 -30.273438 28.578125 -29.734375 28.578125 -29.078125 L 28.578125 -2.28125 C 28.578125 -1.625 28.359375 -1.078125 27.921875 -0.640625 C 27.492188 -0.210938 26.921875 0 26.203125 0 C 25.578125 0 25.039062 -0.210938 24.59375 -0.640625 C 24.144531 -1.078125 23.921875 -1.625 23.921875 -2.28125 L 23.921875 -29.078125 C 23.921875 -29.734375 24.148438 -30.273438 24.609375 -30.703125 C 25.078125 -31.140625 25.625 -31.359375 26.25 -31.359375 Z M 5.875 -18.015625 L 26.296875 -18.015625 L 26.25 -13.703125 L 5.828125 -13.703125 Z M 5.875 -18.015625 "/></g></g></g><g fill="#ffffff" fill-opacity="1"><g transform="translate(28.291947, 44.558048)"><g><path d="M 5.90625 -31.359375 L 21.40625 -31.359375 C 22.039062 -31.359375 22.570312 -31.148438 23 -30.734375 C 23.4375 -30.316406 23.65625 -29.789062 23.65625 -29.15625 C 23.65625 -28.53125 23.4375 -28.023438 23 -27.640625 C 22.570312 -27.253906 22.039062 -27.0625 21.40625 -27.0625 L 7.890625 -27.0625 L 8.328125 -27.8125 L 8.328125 -17.78125 L 7.921875 -18.234375 L 19.390625 -18.234375 C 20.023438 -18.234375 20.554688 -18.023438 20.984375 -17.609375 C 21.421875 -17.191406 21.640625 -16.65625 21.640625 -16 C 21.640625 -15.363281 21.421875 -14.851562 20.984375 -14.46875 C 20.554688 -14.082031 20.023438 -13.890625 19.390625 -13.890625 L 8.015625 -13.890625 L 8.328125 -14.296875 L 8.328125 -3.9375 L 8.015625 -4.296875 L 21.40625 -4.296875 C 22.039062 -4.296875 22.570312 -4.078125 23 -3.640625 C 23.4375 -3.210938 23.65625 -2.71875 23.65625 -2.15625 C 23.65625 -1.519531 23.4375 -1 23 -0.59375 C 22.570312 -0.195312 22.039062 0 21.40625 0 L 5.90625 0 C 5.28125 0 4.742188 -0.210938 4.296875 -0.640625 C 3.847656 -1.078125 3.625 -1.625 3.625 -2.28125 L 3.625 -29.078125 C 3.625 -29.734375 3.847656 -30.273438 4.296875 -30.703125 C 4.742188 -31.140625 5.28125 -31.359375 5.90625 -31.359375 Z M 5.90625 -31.359375 "/></g></g></g><g fill="#ffffff" fill-opacity="1"><g transform="translate(49.833829, 44.558048)"><g><path d="M 14.828125 -25.53125 L 4.75 -1.34375 C 4.570312 -0.863281 4.300781 -0.488281 3.9375 -0.21875 C 3.582031 0.0390625 3.179688 0.171875 2.734375 0.171875 C 2.078125 0.171875 1.582031 -0.0078125 1.25 -0.375 C 0.925781 -0.75 0.75 -1.222656 0.71875 -1.796875 C 0.71875 -2.003906 0.757812 -2.242188 0.84375 -2.515625 L 12.234375 -30.015625 C 12.441406 -30.523438 12.742188 -30.910156 13.140625 -31.171875 C 13.546875 -31.441406 13.988281 -31.5625 14.46875 -31.53125 C 14.914062 -31.53125 15.332031 -31.394531 15.71875 -31.125 C 16.113281 -30.863281 16.398438 -30.492188 16.578125 -30.015625 L 27.8125 -2.90625 C 27.9375 -2.613281 28 -2.316406 28 -2.015625 C 28 -1.359375 27.78125 -0.828125 27.34375 -0.421875 C 26.914062 -0.0234375 26.429688 0.171875 25.890625 0.171875 C 25.441406 0.171875 25.03125 0.03125 24.65625 -0.25 C 24.28125 -0.53125 24.003906 -0.894531 23.828125 -1.34375 L 13.65625 -25.40625 Z M 6.546875 -7.703125 L 8.5625 -12 L 21.234375 -12 L 22 -7.703125 Z M 6.546875 -7.703125 "/></g></g></g><g fill="#ffffff" fill-opacity="1"><g transform="translate(74.555658, 44.558048)"><g><path d="M 20.96875 -4.390625 C 21.59375 -4.390625 22.117188 -4.179688 22.546875 -3.765625 C 22.984375 -3.347656 23.203125 -2.820312 23.203125 -2.1875 C 23.203125 -1.5625 22.984375 -1.039062 22.546875 -0.625 C 22.117188 -0.207031 21.59375 0 20.96875 0 L 5.90625 0 C 5.25 0 4.703125 -0.210938 4.265625 -0.640625 C 3.835938 -1.078125 3.625 -1.625 3.625 -2.28125 L 3.625 -29.078125 C 3.625 -29.734375 3.847656 -30.273438 4.296875 -30.703125 C 4.742188 -31.140625 5.328125 -31.359375 6.046875 -31.359375 C 6.640625 -31.359375 7.164062 -31.140625 7.625 -30.703125 C 8.09375 -30.273438 8.328125 -29.734375 8.328125 -29.078125 L 8.328125 -3.625 L 7.390625 -4.390625 Z M 20.96875 -4.390625 "/></g></g></g><g fill="#ffffff" fill-opacity="1"><g transform="translate(95.24657, 44.558048)"><g><path d="M 13.84375 0 C 13.125 0 12.546875 -0.210938 12.109375 -0.640625 C 11.679688 -1.078125 11.46875 -1.625 11.46875 -2.28125 L 11.46875 -29.125 L 16.265625 -29.125 L 16.265625 -2.28125 C 16.265625 -1.625 16.03125 -1.078125 15.5625 -0.640625 C 15.101562 -0.210938 14.53125 0 13.84375 0 Z M 3.671875 -27.0625 C 3.046875 -27.0625 2.507812 -27.257812 2.0625 -27.65625 C 1.613281 -28.0625 1.390625 -28.59375 1.390625 -29.25 C 1.390625 -29.875 1.613281 -30.378906 2.0625 -30.765625 C 2.507812 -31.160156 3.046875 -31.359375 3.671875 -31.359375 L 24.0625 -31.359375 C 24.6875 -31.359375 25.210938 -31.15625 25.640625 -30.75 C 26.078125 -30.34375 26.296875 -29.828125 26.296875 -29.203125 C 26.296875 -28.546875 26.078125 -28.023438 25.640625 -27.640625 C 25.210938 -27.253906 24.6875 -27.0625 24.0625 -27.0625 Z M 3.671875 -27.0625 "/></g></g></g><g fill="#ffffff" fill-opacity="1"><g transform="translate(118.938265, 44.558048)"><g><path d="M 6.046875 -31.359375 C 6.640625 -31.359375 7.164062 -31.140625 7.625 -30.703125 C 8.09375 -30.273438 8.328125 -29.734375 8.328125 -29.078125 L 8.328125 -2.28125 C 8.296875 -1.625 8.050781 -1.078125 7.59375 -0.640625 C 7.132812 -0.210938 6.585938 0 5.953125 0 C 5.265625 0 4.703125 -0.210938 4.265625 -0.640625 C 3.835938 -1.078125 3.625 -1.625 3.625 -2.28125 L 3.625 -29.078125 C 3.625 -29.734375 3.847656 -30.273438 4.296875 -30.703125 C 4.742188 -31.140625 5.328125 -31.359375 6.046875 -31.359375 Z M 26.25 -31.359375 C 26.96875 -31.359375 27.535156 -31.140625 27.953125 -30.703125 C 28.367188 -30.273438 28.578125 -29.734375 28.578125 -29.078125 L 28.578125 -2.28125 C 28.578125 -1.625 28.359375 -1.078125 27.921875 -0.640625 C 27.492188 -0.210938 26.921875 0 26.203125 0 C 25.578125 0 25.039062 -0.210938 24.59375 -0.640625 C 24.144531 -1.078125 23.921875 -1.625 23.921875 -2.28125 L 23.921875 -29.078125 C 23.921875 -29.734375 24.148438 -30.273438 24.609375 -30.703125 C 25.078125 -31.140625 25.625 -31.359375 26.25 -31.359375 Z M 5.875 -18.015625 L 26.296875 -18.015625 L 26.25 -13.703125 L 5.828125 -13.703125 Z M 5.875 -18.015625 "/></g></g></g></g></g><g fill="#7c4d93" fill-opacity="1"><g transform="translate(119.222692, 214.060556)"><g><path d="M 80.953125 -39.40625 C 80.953125 -33.78125 80.015625 -28.523438 78.140625 -23.640625 C 76.265625 -18.765625 73.617188 -14.46875 70.203125 -10.75 C 66.785156 -7.03125 62.726562 -4.117188 58.03125 -2.015625 C 53.34375 0.078125 48.222656 1.125 42.671875 1.125 C 37.117188 1.125 32.015625 0.078125 27.359375 -2.015625 C 22.703125 -4.117188 18.664062 -7.03125 15.25 -10.75 C 11.84375 -14.46875 9.195312 -18.765625 7.3125 -23.640625 C 5.4375 -28.523438 4.5 -33.78125 4.5 -39.40625 C 4.5 -45.039062 5.4375 -50.296875 7.3125 -55.171875 C 9.195312 -60.046875 11.84375 -64.34375 15.25 -68.0625 C 18.664062 -71.78125 22.703125 -74.6875 27.359375 -76.78125 C 32.015625 -78.882812 37.117188 -79.9375 42.671875 -79.9375 C 48.222656 -79.9375 53.34375 -78.882812 58.03125 -76.78125 C 62.726562 -74.6875 66.785156 -71.78125 70.203125 -68.0625 C 73.617188 -64.34375 76.265625 -60.046875 78.140625 -55.171875 C 80.015625 -50.296875 80.953125 -45.039062 80.953125 -39.40625 Z M 66.3125 -39.40625 C 66.3125 -44.4375 65.296875 -48.992188 63.265625 -53.078125 C 61.242188 -57.171875 58.46875 -60.421875 54.9375 -62.828125 C 51.414062 -65.234375 47.328125 -66.4375 42.671875 -66.4375 C 38.015625 -66.4375 33.921875 -65.234375 30.390625 -62.828125 C 26.867188 -60.421875 24.113281 -57.191406 22.125 -53.140625 C 20.132812 -49.085938 19.140625 -44.507812 19.140625 -39.40625 C 19.140625 -34.375 20.132812 -29.8125 22.125 -25.71875 C 24.113281 -21.632812 26.867188 -18.390625 30.390625 -15.984375 C 33.921875 -13.585938 38.015625 -12.390625 42.671875 -12.390625 C 47.328125 -12.390625 51.414062 -13.585938 54.9375 -15.984375 C 58.46875 -18.390625 61.242188 -21.632812 63.265625 -25.71875 C 65.296875 -29.8125 66.3125 -34.375 66.3125 -39.40625 Z M 66.3125 -39.40625 "/></g></g></g><g fill="#7c4d93" fill-opacity="1"><g transform="translate(197.579193, 214.060556)"><g><path d="M 33.78125 1.125 C 28.519531 1.125 23.785156 0.46875 19.578125 -0.84375 C 15.378906 -2.15625 11.367188 -4.460938 7.546875 -7.765625 C 6.566406 -8.585938 5.8125 -9.523438 5.28125 -10.578125 C 4.757812 -11.628906 4.5 -12.679688 4.5 -13.734375 C 4.5 -15.460938 5.117188 -16.984375 6.359375 -18.296875 C 7.597656 -19.609375 9.15625 -20.265625 11.03125 -20.265625 C 12.457031 -20.265625 13.734375 -19.816406 14.859375 -18.921875 C 17.710938 -16.585938 20.546875 -14.820312 23.359375 -13.625 C 26.171875 -12.425781 29.644531 -11.828125 33.78125 -11.828125 C 36.550781 -11.828125 39.097656 -12.253906 41.421875 -13.109375 C 43.753906 -13.972656 45.632812 -15.132812 47.0625 -16.59375 C 48.488281 -18.0625 49.203125 -19.738281 49.203125 -21.625 C 49.203125 -23.875 48.523438 -25.785156 47.171875 -27.359375 C 45.828125 -28.929688 43.765625 -30.257812 40.984375 -31.34375 C 38.203125 -32.4375 34.675781 -33.285156 30.40625 -33.890625 C 26.34375 -34.492188 22.773438 -35.410156 19.703125 -36.640625 C 16.628906 -37.878906 14.054688 -39.457031 11.984375 -41.375 C 9.921875 -43.289062 8.363281 -45.539062 7.3125 -48.125 C 6.269531 -50.71875 5.75 -53.628906 5.75 -56.859375 C 5.75 -61.734375 7.003906 -65.894531 9.515625 -69.34375 C 12.023438 -72.800781 15.421875 -75.429688 19.703125 -77.234375 C 23.984375 -79.035156 28.710938 -79.9375 33.890625 -79.9375 C 38.765625 -79.9375 43.285156 -79.203125 47.453125 -77.734375 C 51.617188 -76.273438 55.015625 -74.421875 57.640625 -72.171875 C 59.816406 -70.441406 60.90625 -68.453125 60.90625 -66.203125 C 60.90625 -64.554688 60.265625 -63.054688 58.984375 -61.703125 C 57.710938 -60.347656 56.21875 -59.671875 54.5 -59.671875 C 53.375 -59.671875 52.359375 -60.007812 51.453125 -60.6875 C 50.253906 -61.738281 48.640625 -62.734375 46.609375 -63.671875 C 44.585938 -64.609375 42.445312 -65.394531 40.1875 -66.03125 C 37.9375 -66.675781 35.835938 -67 33.890625 -67 C 30.660156 -67 27.9375 -66.582031 25.71875 -65.75 C 23.507812 -64.925781 21.84375 -63.800781 20.71875 -62.375 C 19.59375 -60.945312 19.03125 -59.296875 19.03125 -57.421875 C 19.03125 -55.171875 19.6875 -53.3125 21 -51.84375 C 22.3125 -50.382812 24.207031 -49.222656 26.6875 -48.359375 C 29.164062 -47.492188 32.128906 -46.722656 35.578125 -46.046875 C 40.078125 -45.222656 44.035156 -44.25 47.453125 -43.125 C 50.867188 -42 53.703125 -40.550781 55.953125 -38.78125 C 58.210938 -37.019531 59.90625 -34.804688 61.03125 -32.140625 C 62.15625 -29.472656 62.71875 -26.226562 62.71875 -22.40625 C 62.71875 -17.53125 61.363281 -13.328125 58.65625 -9.796875 C 55.957031 -6.265625 52.410156 -3.5625 48.015625 -1.6875 C 43.628906 0.1875 38.882812 1.125 33.78125 1.125 Z M 33.78125 1.125 "/></g></g></g><g fill="#7c4d93" fill-opacity="1"><g transform="translate(257.697419, 214.060556)"><g><path d="M 22.515625 -6.875 C 22.515625 -4.914062 21.800781 -3.28125 20.375 -1.96875 C 18.945312 -0.65625 17.296875 0 15.421875 0 C 13.316406 0 11.625 -0.65625 10.34375 -1.96875 C 9.070312 -3.28125 8.4375 -4.914062 8.4375 -6.875 L 8.4375 -71.953125 C 8.4375 -73.898438 9.113281 -75.53125 10.46875 -76.84375 C 11.820312 -78.15625 13.550781 -78.8125 15.65625 -78.8125 C 17.457031 -78.8125 19.050781 -78.15625 20.4375 -76.84375 C 21.820312 -75.53125 22.515625 -73.898438 22.515625 -71.953125 Z M 22.515625 -6.875 "/></g></g></g><g fill="#7c4d93" fill-opacity="1"><g transform="translate(281.564254, 214.060556)"><g><path d="M 37.375 -61.140625 L 13.0625 -3.9375 C 12.53125 -2.507812 11.71875 -1.398438 10.625 -0.609375 C 9.539062 0.171875 8.363281 0.5625 7.09375 0.5625 C 5.0625 0.5625 3.554688 0 2.578125 -1.125 C 1.609375 -2.25 1.125 -3.640625 1.125 -5.296875 C 1.125 -5.972656 1.238281 -6.6875 1.46875 -7.4375 L 29.5 -74.765625 C 30.101562 -76.265625 31.019531 -77.425781 32.25 -78.25 C 33.488281 -79.070312 34.820312 -79.410156 36.25 -79.265625 C 37.601562 -79.265625 38.859375 -78.867188 40.015625 -78.078125 C 41.179688 -77.296875 42.03125 -76.191406 42.5625 -74.765625 L 70.265625 -8.78125 C 70.640625 -7.800781 70.828125 -6.898438 70.828125 -6.078125 C 70.828125 -4.054688 70.164062 -2.441406 68.84375 -1.234375 C 67.53125 -0.0351562 66.085938 0.5625 64.515625 0.5625 C 63.160156 0.5625 61.9375 0.148438 60.84375 -0.671875 C 59.757812 -1.503906 58.921875 -2.628906 58.328125 -4.046875 L 34.109375 -60.46875 Z M 16.546875 -17.671875 L 22.75 -30.625 L 53.140625 -30.625 L 55.28125 -17.671875 Z M 16.546875 -17.671875 "/></g></g></g><g fill="#1f2a5a" fill-opacity="1"><g transform="translate(200.501622, 250.621932)"><g><path d="M 6.15625 -31.875 C 6.757812 -31.875 7.296875 -31.65625 7.765625 -31.21875 C 8.234375 -30.78125 8.46875 -30.226562 8.46875 -29.5625 L 8.46875 -2.328125 C 8.4375 -1.660156 8.1875 -1.101562 7.71875 -0.65625 C 7.25 -0.21875 6.695312 0 6.0625 0 C 5.363281 0 4.789062 -0.21875 4.34375 -0.65625 C 3.90625 -1.101562 3.6875 -1.660156 3.6875 -2.328125 L 3.6875 -29.5625 C 3.6875 -30.226562 3.914062 -30.78125 4.375 -31.21875 C 4.832031 -31.65625 5.425781 -31.875 6.15625 -31.875 Z M 26.6875 -31.875 C 27.414062 -31.875 27.992188 -31.65625 28.421875 -31.21875 C 28.847656 -30.78125 29.0625 -30.226562 29.0625 -29.5625 L 29.0625 -2.328125 C 29.0625 -1.660156 28.835938 -1.101562 28.390625 -0.65625 C 27.953125 -0.21875 27.367188 0 26.640625 0 C 26.003906 0 25.457031 -0.21875 25 -0.65625 C 24.550781 -1.101562 24.328125 -1.660156 24.328125 -2.328125 L 24.328125 -29.5625 C 24.328125 -30.226562 24.5625 -30.78125 25.03125 -31.21875 C 25.5 -31.65625 26.050781 -31.875 26.6875 -31.875 Z M 5.96875 -18.3125 L 26.734375 -18.3125 L 26.6875 -13.9375 L 5.921875 -13.9375 Z M 5.96875 -18.3125 "/></g></g></g><g fill="#1f2a5a" fill-opacity="1"><g transform="translate(229.144556, 250.621932)"><g><path d="M 6.015625 -31.875 L 21.765625 -31.875 C 22.410156 -31.875 22.953125 -31.660156 23.390625 -31.234375 C 23.828125 -30.816406 24.046875 -30.289062 24.046875 -29.65625 C 24.046875 -29.007812 23.828125 -28.488281 23.390625 -28.09375 C 22.953125 -27.707031 22.410156 -27.515625 21.765625 -27.515625 L 8.015625 -27.515625 L 8.46875 -28.28125 L 8.46875 -18.078125 L 8.0625 -18.53125 L 19.71875 -18.53125 C 20.351562 -18.53125 20.890625 -18.316406 21.328125 -17.890625 C 21.773438 -17.472656 22 -16.929688 22 -16.265625 C 22 -15.617188 21.773438 -15.097656 21.328125 -14.703125 C 20.890625 -14.316406 20.351562 -14.125 19.71875 -14.125 L 8.15625 -14.125 L 8.46875 -14.53125 L 8.46875 -4.015625 L 8.15625 -4.375 L 21.765625 -4.375 C 22.410156 -4.375 22.953125 -4.148438 23.390625 -3.703125 C 23.828125 -3.265625 24.046875 -2.757812 24.046875 -2.1875 C 24.046875 -1.550781 23.828125 -1.023438 23.390625 -0.609375 C 22.953125 -0.203125 22.410156 0 21.765625 0 L 6.015625 0 C 5.378906 0 4.832031 -0.21875 4.375 -0.65625 C 3.914062 -1.101562 3.6875 -1.660156 3.6875 -2.328125 L 3.6875 -29.5625 C 3.6875 -30.226562 3.914062 -30.78125 4.375 -31.21875 C 4.832031 -31.65625 5.378906 -31.875 6.015625 -31.875 Z M 6.015625 -31.875 "/></g></g></g><g fill="#1f2a5a" fill-opacity="1"><g transform="translate(251.047711, 250.621932)"><g><path d="M 15.078125 -25.96875 L 4.828125 -1.359375 C 4.640625 -0.878906 4.363281 -0.5 4 -0.21875 C 3.644531 0.0507812 3.238281 0.1875 2.78125 0.1875 C 2.113281 0.1875 1.613281 0 1.28125 -0.375 C 0.945312 -0.757812 0.765625 -1.242188 0.734375 -1.828125 C 0.734375 -2.035156 0.773438 -2.273438 0.859375 -2.546875 L 12.4375 -30.515625 C 12.644531 -31.035156 12.953125 -31.429688 13.359375 -31.703125 C 13.773438 -31.972656 14.226562 -32.09375 14.71875 -32.0625 C 15.164062 -32.0625 15.585938 -31.925781 15.984375 -31.65625 C 16.378906 -31.382812 16.671875 -31.003906 16.859375 -30.515625 L 28.28125 -2.953125 C 28.40625 -2.648438 28.46875 -2.347656 28.46875 -2.046875 C 28.46875 -1.378906 28.242188 -0.835938 27.796875 -0.421875 C 27.359375 -0.015625 26.867188 0.1875 26.328125 0.1875 C 25.867188 0.1875 25.445312 0.0390625 25.0625 -0.25 C 24.6875 -0.539062 24.410156 -0.910156 24.234375 -1.359375 L 13.890625 -25.828125 Z M 6.65625 -7.828125 L 8.703125 -12.203125 L 21.59375 -12.203125 L 22.359375 -7.828125 Z M 6.65625 -7.828125 "/></g></g></g><g fill="#1f2a5a" fill-opacity="1"><g transform="translate(276.184142, 250.621932)"><g><path d="M 21.3125 -4.46875 C 21.945312 -4.46875 22.484375 -4.253906 22.921875 -3.828125 C 23.367188 -3.398438 23.59375 -2.867188 23.59375 -2.234375 C 23.59375 -1.597656 23.367188 -1.066406 22.921875 -0.640625 C 22.484375 -0.210938 21.945312 0 21.3125 0 L 6.015625 0 C 5.347656 0 4.789062 -0.21875 4.34375 -0.65625 C 3.90625 -1.101562 3.6875 -1.660156 3.6875 -2.328125 L 3.6875 -29.5625 C 3.6875 -30.226562 3.914062 -30.78125 4.375 -31.21875 C 4.832031 -31.65625 5.425781 -31.875 6.15625 -31.875 C 6.757812 -31.875 7.296875 -31.65625 7.765625 -31.21875 C 8.234375 -30.78125 8.46875 -30.226562 8.46875 -29.5625 L 8.46875 -3.6875 L 7.515625 -4.46875 Z M 21.3125 -4.46875 "/></g></g></g><g fill="#1f2a5a" fill-opacity="1"><g transform="translate(297.222055, 250.621932)"><g><path d="M 14.078125 0 C 13.347656 0 12.757812 -0.21875 12.3125 -0.65625 C 11.875 -1.101562 11.65625 -1.660156 11.65625 -2.328125 L 11.65625 -29.609375 L 16.53125 -29.609375 L 16.53125 -2.328125 C 16.53125 -1.660156 16.296875 -1.101562 15.828125 -0.65625 C 15.359375 -0.21875 14.773438 0 14.078125 0 Z M 3.734375 -27.515625 C 3.097656 -27.515625 2.550781 -27.71875 2.09375 -28.125 C 1.632812 -28.53125 1.40625 -29.066406 1.40625 -29.734375 C 1.40625 -30.378906 1.632812 -30.894531 2.09375 -31.28125 C 2.550781 -31.675781 3.097656 -31.875 3.734375 -31.875 L 24.453125 -31.875 C 25.097656 -31.875 25.640625 -31.671875 26.078125 -31.265625 C 26.515625 -30.859375 26.734375 -30.335938 26.734375 -29.703125 C 26.734375 -29.023438 26.515625 -28.488281 26.078125 -28.09375 C 25.640625 -27.707031 25.097656 -27.515625 24.453125 -27.515625 Z M 3.734375 -27.515625 "/></g></g></g><g fill="#1f2a5a" fill-opacity="1"><g transform="translate(321.311077, 250.621932)"><g><path d="M 6.15625 -31.875 C 6.757812 -31.875 7.296875 -31.65625 7.765625 -31.21875 C 8.234375 -30.78125 8.46875 -30.226562 8.46875 -29.5625 L 8.46875 -2.328125 C 8.4375 -1.660156 8.1875 -1.101562 7.71875 -0.65625 C 7.25 -0.21875 6.695312 0 6.0625 0 C 5.363281 0 4.789062 -0.21875 4.34375 -0.65625 C 3.90625 -1.101562 3.6875 -1.660156 3.6875 -2.328125 L 3.6875 -29.5625 C 3.6875 -30.226562 3.914062 -30.78125 4.375 -31.21875 C 4.832031 -31.65625 5.425781 -31.875 6.15625 -31.875 Z M 26.6875 -31.875 C 27.414062 -31.875 27.992188 -31.65625 28.421875 -31.21875 C 28.847656 -30.78125 29.0625 -30.226562 29.0625 -29.5625 L 29.0625 -2.328125 C 29.0625 -1.660156 28.835938 -1.101562 28.390625 -0.65625 C 27.953125 -0.21875 27.367188 0 26.640625 0 C 26.003906 0 25.457031 -0.21875 25 -0.65625 C 24.550781 -1.101562 24.328125 -1.660156 24.328125 -2.328125 L 24.328125 -29.5625 C 24.328125 -30.226562 24.5625 -30.78125 25.03125 -31.21875 C 25.5 -31.65625 26.050781 -31.875 26.6875 -31.875 Z M 5.96875 -18.3125 L 26.734375 -18.3125 L 26.6875 -13.9375 L 5.921875 -13.9375 Z M 5.96875 -18.3125 "/></g></g></g></svg>