<svg xmlns="http://www.w3.org/2000/svg" xmlns:xlink="http://www.w3.org/1999/xlink" width="500" zoomAndPan="magnify" viewBox="0 0 375 374.999991" height="500" preserveAspectRatio="xMidYMid meet" version="1.0"><defs><clipPath id="1871541ca7"><path d="M 221 57.628906 L 309.597656 57.628906 L 309.597656 317.128906 L 221 317.128906 Z M 221 57.628906 " clip-rule="nonzero"/></clipPath><clipPath id="1cb02e8dfa"><path d="M 65.097656 57.628906 L 277 57.628906 L 277 317.128906 L 65.097656 317.128906 Z M 65.097656 57.628906 " clip-rule="nonzero"/></clipPath></defs><g clip-path="url(#1871541ca7)"><path fill="#7c4d93" d="M 250.917969 57.621094 L 221.71875 57.621094 C 255.539062 90.546875 276.546875 136.566406 276.546875 187.496094 C 276.546875 238.425781 255.539062 284.445312 221.71875 317.375 L 250.917969 317.375 C 283.402344 317.375 309.734375 291.039062 309.734375 258.554688 L 309.734375 116.4375 C 309.734375 83.953125 283.402344 57.621094 250.917969 57.621094 " fill-opacity="1" fill-rule="nonzero"/></g><g clip-path="url(#1cb02e8dfa)"><path fill="#252669" d="M 276.546875 187.496094 C 276.546875 136.566406 255.539062 90.546875 221.71875 57.621094 L 108.796875 57.621094 C 91.539062 57.621094 76.015625 65.058594 65.253906 76.898438 L 212.945312 76.898438 C 222.652344 76.898438 230.523438 84.769531 230.523438 94.476562 L 230.523438 106.546875 C 230.523438 116.257812 222.652344 124.128906 212.945312 124.128906 L 133.429688 124.128906 C 123.722656 124.128906 115.851562 131.996094 115.851562 141.703125 C 115.851562 151.410156 123.722656 159.28125 133.429688 159.28125 L 204.644531 159.28125 C 214.355469 159.28125 222.226562 167.152344 222.226562 176.859375 L 222.226562 186.816406 C 222.226562 196.527344 214.355469 204.398438 204.644531 204.398438 L 133.429688 204.398438 C 123.722656 204.398438 115.851562 212.265625 115.851562 221.972656 L 115.851562 230.421875 C 115.851562 240.132812 123.722656 248.003906 133.429688 248.003906 L 216.265625 248.003906 C 225.972656 248.003906 233.84375 255.871094 233.84375 265.578125 L 233.84375 280.515625 C 233.84375 290.226562 225.972656 298.097656 216.265625 298.097656 L 65.253906 298.097656 C 76.015625 309.9375 91.539062 317.375 108.796875 317.375 L 221.71875 317.375 C 255.539062 284.445312 276.546875 238.425781 276.546875 187.496094 " fill-opacity="1" fill-rule="nonzero"/></g></svg>